<svg width="191" height="272" viewBox="0 0 191 272" fill="none" xmlns="http://www.w3.org/2000/svg">
<path fill-rule="evenodd" clip-rule="evenodd" d="M94.9377 0.150757L160.17 65.3832L132.777 92.7766C128.184 97.3693 122.725 100.568 116.926 102.372L190.739 176.185L95.3832 271.17L30.1508 205.938L57.5442 178.544C62.2448 173.844 67.8526 170.604 73.8041 168.824L0.150757 95.1706L94.9377 0.150757ZM94.9377 29.8492L69.8492 54.9377L92.8389 77.9274C99.7669 84.8554 110.999 84.8554 117.927 77.9274L130.472 65.3832L94.9377 29.8492ZM54.9377 70.0822L29.8492 95.1707L135.952 201.273L161.04 176.185L54.9377 70.0822ZM120.472 216.383L95.3832 241.472L59.8493 205.938L72.3935 193.393C79.3215 186.465 90.5539 186.465 97.4819 193.393L120.472 216.383Z" fill="url(#paint0_linear)"/>
<defs>
<linearGradient id="paint0_linear" x1="95.4448" y1="0.150757" x2="95.4448" y2="271.17" gradientUnits="userSpaceOnUse">
<stop stop-color="#FF618E"/>
<stop offset="1" stop-color="#FF617B"/>
</linearGradient>
</defs>
</svg>
